<!DOCTYPE svg PUBLIC "-//W3C//DTD SVG 20010904//EN" "http://www.w3.org/TR/2001/REC-SVG-20010904/DTD/svg10.dtd">
<svg version="1.0" xmlns="http://www.w3.org/2000/svg" width="118px" height="118px" viewBox="0 0 1180 1180" preserveAspectRatio="xMidYMid meet">
<g id="layer101" fill="#ffffff" stroke="none">
 <path d="M420 894 c-84 -125 -155 -235 -157 -245 -4 -14 34 3 152 66 86 47 161 85 167 85 5 0 76 -36 157 -80 82 -44 151 -80 155 -80 3 0 6 5 6 10 0 15 -310 470 -320 470 -4 0 -77 -102 -160 -226z"/>
 <path d="M428 682 c-87 -48 -158 -90 -158 -94 0 -7 301 -171 315 -171 20 1 315 165 310 173 -3 5 -56 36 -118 71 -61 34 -130 72 -152 85 l-40 22 -157 -86z"/>
 <path d="M262 532 c8 -27 307 -472 318 -472 10 0 312 444 318 468 2 6 0 12 -4 12 -4 0 -73 -36 -155 -80 -81 -44 -152 -80 -157 -80 -6 0 -81 38 -167 85 -113 61 -156 79 -153 67z"/>
 </g>

</svg>